solid OpenSCAD_Model
  facet normal 0 0 -1
    outer loop
      vertex -10 0 -50
      vertex -8.95471 -0.0547943 -50
      vertex -10 -0.0547943 -50
    endloop
  endfacet
  facet normal 0 -0 -1
    outer loop
      vertex 0 0 -50
      vertex 0 -10 -50
      vertex -0.218536 -7.92087 -50
    endloop
  endfacet
  facet normal -0 0 -1
    outer loop
      vertex 0 0 -50
      vertex -8.95471 -0.0547943 -50
      vertex -10 0 -50
    endloop
  endfacet
  facet normal 0 0 -1
    outer loop
      vertex 0 0 -50
      vertex -6.90982 -0.489441 -50
      vertex -8.95471 -0.0547943 -50
    endloop
  endfacet
  facet normal 0 0 -1
    outer loop
      vertex 0 0 -50
      vertex -5 -1.33975 -50
      vertex -6.90982 -0.489441 -50
    endloop
  endfacet
  facet normal 0 0 -1
    outer loop
      vertex 0 0 -50
      vertex -3.3087 -2.56856 -50
      vertex -5 -1.33975 -50
    endloop
  endfacet
  facet normal 0 0 -1
    outer loop
      vertex 0 0 -50
      vertex -1.90984 -4.12216 -50
      vertex -3.3087 -2.56856 -50
    endloop
  endfacet
  facet normal 0 0 -1
    outer loop
      vertex 0 0 -50
      vertex -0.864548 -5.93263 -50
      vertex -1.90984 -4.12216 -50
    endloop
  endfacet
  facet normal 0 0 -1
    outer loop
      vertex 0 0 -50
      vertex -0.218536 -7.92087 -50
      vertex -0.864548 -5.93263 -50
    endloop
  endfacet
  facet normal 0 0 1
    outer loop
      vertex -10 -0.0547943 50
      vertex -8.95471 -0.0547943 50
      vertex -10 0 50
    endloop
  endfacet
  facet normal -0 0 1
    outer loop
      vertex -0.218536 -7.92087 50
      vertex 0 -10 50
      vertex 0 0 50
    endloop
  endfacet
  facet normal -0 0 1
    outer loop
      vertex -10 0 50
      vertex -8.95471 -0.0547943 50
      vertex 0 0 50
    endloop
  endfacet
  facet normal -0 0 1
    outer loop
      vertex -8.95471 -0.0547943 50
      vertex -6.90982 -0.489441 50
      vertex 0 0 50
    endloop
  endfacet
  facet normal -0 0 1
    outer loop
      vertex -6.90982 -0.489441 50
      vertex -5 -1.33975 50
      vertex 0 0 50
    endloop
  endfacet
  facet normal -0 0 1
    outer loop
      vertex -5 -1.33975 50
      vertex -3.3087 -2.56856 50
      vertex 0 0 50
    endloop
  endfacet
  facet normal -0 0 1
    outer loop
      vertex -3.3087 -2.56856 50
      vertex -1.90984 -4.12216 50
      vertex 0 0 50
    endloop
  endfacet
  facet normal -0 0 1
    outer loop
      vertex -1.90984 -4.12216 50
      vertex -0.864548 -5.93263 50
      vertex 0 0 50
    endloop
  endfacet
  facet normal -0 0 1
    outer loop
      vertex -0.864548 -5.93263 50
      vertex -0.218536 -7.92087 50
      vertex 0 0 50
    endloop
  endfacet
  facet normal 0 1 0
    outer loop
      vertex -10 0 -50
      vertex 0 0 50
      vertex 0 0 -50
    endloop
  endfacet
  facet normal 0 1 0
    outer loop
      vertex -10 0 -50
      vertex -10 0 50
      vertex 0 0 50
    endloop
  endfacet
  facet normal -1 0 0
    outer loop
      vertex -10 -0.0547943 -50
      vertex -10 0 50
      vertex -10 0 -50
    endloop
  endfacet
  facet normal -1 0 0
    outer loop
      vertex -10 -0.0547943 -50
      vertex -10 -0.0547943 50
      vertex -10 0 50
    endloop
  endfacet
  facet normal 0 -1 0
    outer loop
      vertex -8.95471 -0.0547943 -50
      vertex -10 -0.0547943 50
      vertex -10 -0.0547943 -50
    endloop
  endfacet
  facet normal 0 -1 0
    outer loop
      vertex -8.95471 -0.0547943 -50
      vertex -8.95471 -0.0547943 50
      vertex -10 -0.0547943 50
    endloop
  endfacet
  facet normal -0.207908 -0.978148 0
    outer loop
      vertex -6.90982 -0.489441 -50
      vertex -8.95471 -0.0547943 50
      vertex -8.95471 -0.0547943 -50
    endloop
  endfacet
  facet normal -0.207908 -0.978148 0
    outer loop
      vertex -6.90982 -0.489441 -50
      vertex -6.90982 -0.489441 50
      vertex -8.95471 -0.0547943 50
    endloop
  endfacet
  facet normal -0.406738 -0.913545 0
    outer loop
      vertex -5 -1.33975 -50
      vertex -6.90982 -0.489441 50
      vertex -6.90982 -0.489441 -50
    endloop
  endfacet
  facet normal -0.406738 -0.913545 0
    outer loop
      vertex -5 -1.33975 -50
      vertex -5 -1.33975 50
      vertex -6.90982 -0.489441 50
    endloop
  endfacet
  facet normal -0.587788 -0.809015 0
    outer loop
      vertex -3.3087 -2.56856 -50
      vertex -5 -1.33975 50
      vertex -5 -1.33975 -50
    endloop
  endfacet
  facet normal -0.587788 -0.809015 0
    outer loop
      vertex -3.3087 -2.56856 -50
      vertex -3.3087 -2.56856 50
      vertex -5 -1.33975 50
    endloop
  endfacet
  facet normal -0.743147 -0.669129 0
    outer loop
      vertex -1.90984 -4.12216 -50
      vertex -3.3087 -2.56856 50
      vertex -3.3087 -2.56856 -50
    endloop
  endfacet
  facet normal -0.743147 -0.669129 0
    outer loop
      vertex -1.90984 -4.12216 -50
      vertex -1.90984 -4.12216 50
      vertex -3.3087 -2.56856 50
    endloop
  endfacet
  facet normal -0.866022 -0.500006 0
    outer loop
      vertex -0.864548 -5.93263 -50
      vertex -1.90984 -4.12216 50
      vertex -1.90984 -4.12216 -50
    endloop
  endfacet
  facet normal -0.866022 -0.500006 0
    outer loop
      vertex -0.864548 -5.93263 -50
      vertex -0.864548 -5.93263 50
      vertex -1.90984 -4.12216 50
    endloop
  endfacet
  facet normal -0.951057 -0.309014 0
    outer loop
      vertex -0.218536 -7.92087 -50
      vertex -0.864548 -5.93263 50
      vertex -0.864548 -5.93263 -50
    endloop
  endfacet
  facet normal -0.951057 -0.309014 0
    outer loop
      vertex -0.218536 -7.92087 -50
      vertex -0.218536 -7.92087 50
      vertex -0.864548 -5.93263 50
    endloop
  endfacet
  facet normal -0.994521 -0.104533 0
    outer loop
      vertex 0 -10 -50
      vertex -0.218536 -7.92087 50
      vertex -0.218536 -7.92087 -50
    endloop
  endfacet
  facet normal -0.994521 -0.104533 0
    outer loop
      vertex 0 -10 -50
      vertex 0 -10 50
      vertex -0.218536 -7.92087 50
    endloop
  endfacet
  facet normal 1 0 0
    outer loop
      vertex 0 0 -50
      vertex 0 -10 50
      vertex 0 -10 -50
    endloop
  endfacet
  facet normal 1 0 -0
    outer loop
      vertex 0 0 -50
      vertex 0 0 50
      vertex 0 -10 50
    endloop
  endfacet
endsolid OpenSCAD_Model
